# AST/ASF file generated using VICON BodyLanguage
# -----------------------------------------------
:version 1.10
:name VICON
:units
  mass 1.0
  length 0.45
  angle deg
:documentation
   .ast/.asf automatically generated from VICON data using
   VICON BodyBuilder and BodyLanguage model FoxedUp or BRILLIANT.MOD
:root
   order TX TY TZ RX RY RZ
   axis XYZ
   position 0 0 0  
   orientation 0 0 0 
:bonedata
  begin
     id 1 
     name lhipjoint
     direction 0.610259 -0.730986 0.305356 
     length 2.50941 
     axis 0 0 0  XYZ
  end
  begin
     id 2 
     name lfemur
     direction 0.34202 -0.939693 0  
     length 7.48822  
     axis 0 0 20  XYZ
    dof rx ry rz
    limits (-160.0 20.0)
           (-70.0 70.0)
           (-60.0 70.0)
  end
  begin
     id 3 
     name ltibia
     direction 0.34202 -0.939693 0   
     length 7.60141   
     axis 0 0 20   XYZ
    dof rx
    limits (-10.0 170.0)
  end
  begin
     id 4 
     name lfoot
     direction 0.0673488 -0.185039 0.980421   
     length 2.04049   
     axis -90 7.62852e-016 20   XYZ
    dof rx rz
    limits (-45.0 90.0)
           (-70.0 20.0)
  end
  begin
     id 5 
     name ltoes
     direction 1.5356e-011 -4.21729e-011 1   
     length 1.02897   
     axis -90 7.62852e-016 20   XYZ
    dof rx
    limits (-90.0 20.0)
  end
  begin
     id 6 
     name rhipjoint
     direction -0.57612 -0.754205 0.315056   
     length 2.43216  
     axis 0 0 0  XYZ 
  end
  begin
     id 7 
     name rfemur
     direction -0.34202 -0.939693 0   
     length 7.42799   
     axis 0 0 -20   XYZ
    dof rx ry rz
    limits (-160.0 20.0)
           (-70.0 70.0)
           (-70.0 60.0)
  end
  begin
     id 8 
     name rtibia
     direction -0.34202 -0.939693 0   
     length 7.69484   
     axis 0 0 -20   XYZ
    dof rx
    limits (-10.0 170.0)
 end
 begin
     id 9 
     name rfoot
     direction -0.111837 -0.30727 0.945028   
     length 2.15769  
     axis -90 -7.62852e-016 -20   XYZ
    dof rx rz
    limits (-45.0 90.0)
           (-20.0 70.0)
  end
  begin
     id 10 
     name rtoes
     direction -1.53539e-011 -4.21878e-011 1   
     length 1.07391   
     axis -90 -7.62852e-016 -20   XYZ
    dof rx
    limits (-90.0 20.0)
  end
  begin
     id 11 
     name lowerback
     direction 0.00552624 0.990109 -0.140195   
     length 2.12403   
     axis 0 0 0   XYZ
    dof rx ry rz
    limits (-20.0 45.0)
           (-30.0 30.0)
           (-30.0 30.0)
  end
  begin
     id 12 
     name upperback
     direction 0.00361898 0.999976 -0.00584723   
     length 2.13232   
     axis 0 0 0   XYZ
    dof rx ry rz
    limits (-20.0 45.0)
           (-30.0 30.0)
           (-30.0 30.0)
  end
  begin
     id 13 
     name thorax
     direction -0.000331275 0.998253 0.0590847   
     length 2.17688   
     axis 0 0 0   XYZ
    dof rx ry rz
    limits (-20.0 45.0)
           (-30.0 30.0)
           (-30.0 30.0)
  end
  begin
     id 14 
     name lowerneck
     direction -0.0561561 0.979832 0.19177   
     length 1.64159   
     axis 0 0 0   XYZ
    dof rx ry rz
    limits (-20.0 45.0)
           (-30.0 30.0)
           (-30.0 30.0)
  end
  begin
     id 15 
     name upperneck
     direction 0.0827153 0.979385 -0.184293   
     length 1.68939   
     axis 0 0 0   XYZ
    dof rx ry rz
    limits (-20.0 45.0)
           (-30.0 30.0)
           (-30.0 30.0)
  end
  begin
     id 16
     name head
     direction 0.0278583 0.995936 -0.0856488  
     length 1.70207  
     axis 0 0 0   XYZ
    dof rx ry rz
    limits (-20.0 45.0)
           (-30.0 30.0)
           (-30.0 30.0)
  end
  begin
     id 17 
     name lclavicle
     direction 0.950993 0.301131 -0.0702275  
     length 3.41652  
     axis 0 0 0   XYZ
    dof ry rz
    limits (-20.0 10.0)
           (0.0 20.0)
  end
  begin
     id 18 
     name lhumerus
     direction 1 -4.48981e-011 -3.9662e-029   
     length 5.32955   
     axis 180 -30 -90   XYZ
    dof rx ry rz
    limits (-60.0 90.0)
           (-90.0 90.0)
           (-90.0 90.0)
  end
  begin
     id 19
     name lradius
     direction 1 -4.48925e-011 -9.0549e-027   
     length 3.69232   
     axis 180 -30 -90   XYZ
    dof rx
    limits (-10.0 170.0)
  end
  begin
     id 20
     name lwrist
     direction 1 -4.49007e-011 -1.49005e-026   
     length 1.84616   
     axis 9.0955e-015 90 90   XYZ
    dof ry
    limits (-180.0 0.0)
 end
  begin
     id 21 
     name lhand
     direction 1 -4.49016e-011 -2.98023e-026   
     length 0.536598   
     axis 1.90115e-014 90 90   XYZ
    dof rx rz
    limits (-90.0 90.0)
           (-45.0 45.0)
  end
  begin
     id 22 
     name lfingers
     direction 1 -4.48924e-011 -5.9578e-026   
     length 0.432619   
     axis 3.80223e-014 90 90   XYZ
    dof rx
    limits (0.0 90.0)
  end
  begin
     id 23
     name lthumb
     direction 0.707107 -6.34947e-011 0.707107   
     length 0.621157   
     axis -90 45 -3.84942e-014   XYZ
    dof rx rz
    limits (-45.0 45.0)
           (-45.0 45.0)
  end
  begin
     id 24 
     name rclavicle
     direction -0.955495 0.276497 -0.102848   
     length 3.36357  
     axis 0 0 0   XYZ 
    dof ry rz
    limits (-10.0 20.0)
           (-20.0 0.0)
  end
  begin
     id 25 
     name rhumerus
     direction -1 -4.48961e-011 3.30983e-027  
     length 5.23431   
     axis 180 30 90   XYZ
    dof rx ry rz
    limits (-90.0 60.0)
           (-90.0 90.0)
           (-90.0 90.0)
  end
  begin
     id 26 
     name rradius
     direction -1 -4.48965e-011 -6.63263e-027   
     length 3.55301   
     axis 180 30 90   XYZ
    dof rx
    limits (-10.0 170.0)
  end
  begin
     id 27 
     name rwrist
     direction -1 -4.48942e-011 -1.48958e-026   
     length 1.77651   
     axis 9.0955e-015 -90 -90   XYZ
    dof ry
    limits (-180.0 0.0)
  end
  begin
     id 28
     name rhand
     direction -1 -4.48977e-011 -2.97966e-026   
     length 0.772522   
     axis 1.90115e-014 -90 -90   XYZ
    dof rx rz
    limits (-90.0 90.0)
           (-45.0 45.0)
  end
  begin
     id 29
     name rfingers
     direction -1 -4.49135e-011 -5.96389e-026   
     length 0.622827   
     axis 3.80223e-014 -90 -90   XYZ
    dof rx
    limits (0.0 90.0)
  end
  begin
     id 30
     name rthumb
     direction -0.707107 -6.34969e-011 0.707107   
     length 0.894259   
     axis -90 -45 3.84942e-014   XYZ
    dof rx rz
    limits (-45.0 45.0)
           (-45.0 45.0)
  end
:hierarchy
  begin
    root lhipjoint rhipjoint lowerback
    lhipjoint lfemur
    lfemur ltibia
    ltibia lfoot
    lfoot ltoes
    rhipjoint rfemur
    rfemur rtibia
    rtibia rfoot
    rfoot rtoes
    lowerback upperback
    upperback thorax
    thorax lowerneck lclavicle rclavicle
    lowerneck upperneck
    upperneck head
    lclavicle lhumerus
    lhumerus lradius
    lradius lwrist
    lwrist lhand lthumb
    lhand lfingers
    rclavicle rhumerus
    rhumerus rradius
    rradius rwrist
    rwrist rhand rthumb
    rhand rfingers
  end

#!OML:ASF F:\VICON\USERDATA\INSTALL\rory3\rory3.ASF
:FULLY-SPECIFIED
:DEGREES
18
root 10.5925 17.8554 -9.2749 -0.439487 1.61008 -1.15999
lowerback 9.46604 1.53223 2.20511
upperback 1.66174 2.27248 0.405836
thorax -3.5077 1.10459 -1.09724
lowerneck -18.9639 -7.31683 -12.5561
upperneck 26.3155 -9.41172 9.915
head 13.0857 -4.17192 4.33563
rclavicle -1.05853e-014 5.76476e-015
rhumerus -30.8293 -6.40503 -86.6389
rradius 32.3998
rwrist 4.35014
rhand -15.0977 9.43468
rfingers 7.12502
rthumb 11.0705 -20.2534
lclavicle -1.05853e-014 5.76476e-015
lhumerus -37.4249 9.15273 80.4157
lradius 29.3426
lwrist -8.52751
lhand -20.0572 26.0214
lfingers 7.12502
lthumb 6.28457 55.9082
rfemur 2.76003 -0.868073 27.7312
rtibia 19.0028
rfoot -17.7717 -2.68771
rtoes 4.2588
lfemur -24.4791 -1.89652 -17.1868
ltibia 31.8873
lfoot -7.96604 0.274557
ltoes -14.3874
19
root 10.5907 17.8551 -9.22285 -0.340472 1.6104 -1.15806
lowerback 9.3954 1.61147 2.20476
upperback 1.66982 2.37483 0.386122
thorax -3.45582 1.15606 -1.12712
lowerneck -18.9135 -7.34824 -12.576
upperneck 26.2603 -9.46699 9.96437
head 13.0648 -4.19319 4.34761
rclavicle 5.89645e-014 3.97569e-016
rhumerus -30.8148 -6.37121 -86.6523
rradius 32.7598
rwrist 4.45234
rhand -15.2387 9.64556
rfingers 7.12502
rthumb 10.9345 -20.0497
lclavicle 5.89645e-014 3.97569e-016
lhumerus -37.4503 9.03313 80.4509
lradius 29.0314
lwrist -8.07878
lhand -20.3301 26.0105
lfingers 7.12502
lthumb 6.02115 55.905
rfemur 2.99572 -0.79776 27.7587
rtibia 18.6924
rfoot -17.7669 -2.77663
rtoes 4.08834
lfemur -24.6489 -2.03221 -17.1228
ltibia 30.6379
lfoot -7.78286 0.100211
ltoes -11.7417
20
root 10.5913 17.8544 -9.1684 -0.242507 1.65243 -1.14728
lowerback 9.47233 1.64937 2.22706
upperback 1.61985 2.42881 0.348699
thorax -3.54603 1.18077 -1.18855
lowerneck -18.99 -7.37015 -12.4966
upperneck 26.2728 -9.4971 9.90338
head 13.0815 -4.20339 4.30293
rclavicle -7.62836e-015 1.41137e-014
rhumerus -30.8551 -6.08118 -86.8259
rradius 33.1427
rwrist 3.9339
rhand -15.5109 9.50595
rfingers 7.12502
rthumb 10.6719 -20.203
lclavicle -7.62836e-015 1.41137e-014
lhumerus -37.4918 9.15982 80.3212
lradius 28.6571
lwrist -8.08644
lhand -20.3807 25.7897
lfingers 7.12502
lthumb 5.97227 55.6855
rfemur 3.21351 -0.871125 27.7471
rtibia 18.404
rfoot -17.7733 -2.76237
rtoes 3.59791
lfemur -24.8036 -2.19714 -17.0775
ltibia 29.4067
lfoot -7.49174 -0.0924164
ltoes -10.2731
21
root 10.5926 17.8497 -9.1097 -0.259177 1.61893 -1.12934
lowerback 9.66476 1.68442 2.20495
upperback 1.60696 2.47766 0.331527
thorax -3.66473 1.20329 -1.20706
lowerneck -19.0658 -7.38508 -12.4805
upperneck 26.3244 -9.50539 9.86063
head 13.116 -4.20828 4.28158
rclavicle 2.84262e-014 1.36167e-014
rhumerus -30.7705 -5.74738 -86.972
rradius 33.3491
rwrist 3.47417
rhand -15.6716 9.33503
rfingers 7.12502
rthumb 10.5169 -20.3819
lclavicle 2.84262e-014 1.36167e-014
lhumerus -37.5001 9.36793 80.1471
lradius 28.2716
lwrist -8.29067
lhand -20.3027 25.5082
lfingers 7.12502
lthumb 6.04756 55.4018
rfemur 3.57862 -0.947472 27.7106
rtibia 18.116
rfoot -17.7654 -2.73136
rtoes 2.6973
lfemur -24.8299 -2.24955 -17.0787
ltibia 28.2275
lfoot -7.20797 -0.171909
ltoes -11.2308
22
root 10.5931 17.8441 -9.05151 -0.180739 1.61916 -1.15905
lowerback 9.64232 1.71343 2.20306
upperback 1.6435 2.5157 0.35572
thorax -3.61412 1.22325 -1.18399
lowerneck -19.1097 -7.40198 -12.5233
upperneck 26.2496 -9.49219 9.8277
head 13.0932 -4.20934 4.2749
rclavicle -2.90971e-014 2.06736e-014
rhumerus -30.5608 -5.66674 -86.9639
rradius 33.5292
rwrist 3.79421
rhand -15.3236 8.94033
rfingers 7.12502
rthumb 10.8526 -20.7592
lclavicle -2.90971e-014 2.06736e-014
lhumerus -37.4486 9.63731 80.03
lradius 27.9597
lwrist -8.4906
lhand -20.0769 25.7275
lfingers 7.12502
lthumb 6.26561 55.6148
rfemur 3.8338 -0.95843 27.7543
rtibia 17.8419
rfoot -17.7663 -2.76371
rtoes 2.15405
lfemur -24.9947 -2.26936 -17.0294
ltibia 27.1062
lfoot -7.05537 -0.205443
ltoes -12.0918
